<svg width="30" height="30" viewBox="0 0 30 30" fill="none" xmlns="http://www.w3.org/2000/svg">
<g id="Menu" clip-path="url(#clip0_465_329)">
<path id="Vector" d="M0.357188 5.78532C0.117187 5.54532 0 5.24063 0 4.87126C0 4.50188 0.117187 4.19719 0.357188 3.95719C0.597188 3.71719 0.901875 3.60001 1.27125 3.60001H28.0013C28.3706 3.60001 28.6753 3.71719 28.9153 3.95719C29.1553 4.19719 29.2725 4.50188 29.2725 4.87126C29.2725 5.24063 29.1553 5.54532 28.9153 5.78532C28.6753 6.02532 28.3706 6.14251 28.0013 6.14251H1.27125C0.901875 6.14251 0.597188 6.02532 0.357188 5.78532ZM28.9153 14.1413C29.1553 14.3813 29.2725 14.6859 29.2725 15.0553C29.2725 15.4247 29.1553 15.7294 28.9153 15.9694C28.6753 16.2094 28.3706 16.3266 28.0013 16.3266H1.27125C0.901875 16.3266 0.597188 16.2094 0.357188 15.9694C0.117187 15.7294 0 15.4247 0 15.0553C0 14.6859 0.117187 14.3813 0.357188 14.1413C0.597188 13.9013 0.901875 13.7841 1.27125 13.7841H28.0013C28.3706 13.7841 28.6753 13.9013 28.9153 14.1413ZM28.9153 24.3188C29.1553 24.5588 29.2725 24.8634 29.2725 25.2328C29.2725 25.6022 29.1553 25.9069 28.9153 26.1469C28.6753 26.3869 28.3706 26.5041 28.0013 26.5041H1.27125C0.901875 26.5041 0.597188 26.3869 0.357188 26.1469C0.117187 25.9069 0 25.6022 0 25.2328C0 24.8634 0.117187 24.5588 0.357188 24.3188C0.597188 24.0788 0.901875 23.9616 1.27125 23.9616H28.0013C28.3706 23.9616 28.6753 24.0844 28.9153 24.3188Z" fill="#1F1F1F"/>
</g>
<defs>
<clipPath id="clip0_465_329">
<rect width="30" height="30" fill="white"/>
</clipPath>
</defs>
</svg>
