<svg width="18" height="18" viewBox="0 0 18 18" fill="none" xmlns="http://www.w3.org/2000/svg">
<g id="Order">
<path id="Vector" d="M17.9932 2.89222C17.9978 2.8376 18 2.78281 18 2.72816C18 1.22385 16.7745 0 15.2682 0C15.2372 0 15.2071 0.00120452 15.1371 0.00427619L2.83881 0.00341292C2.80327 0.00170644 2.76718 0 2.72977 0C1.22581 0 0.00237218 1.22144 0.00237218 2.72459L0.00615149 2.94446H0L0.00786024 14.8893L0.00460363 15.2985C0.00460363 16.7847 1.21522 17.9937 2.70325 17.9937C2.73679 17.9937 2.84412 17.9889 2.84599 17.9889L15.0875 17.9906C15.1475 17.9978 15.2125 18 15.2795 18C15.9995 18 16.6769 17.7199 17.1868 17.211C17.6969 16.7022 17.9778 16.0267 17.9778 15.3079L17.9749 15.0666H17.9933L17.9932 2.89222ZM2.76189 16.8215L2.70993 16.8174C1.85506 16.8174 1.17915 16.1175 1.17129 15.2252V5.39198H16.8226L16.8318 15.1327L16.8141 15.1902C16.8033 15.2271 16.798 15.2621 16.798 15.294C16.798 16.1047 16.1636 16.7749 15.3535 16.8198L15.1361 16.8323V16.8217L2.76189 16.8215ZM16.8224 4.2226H1.17248L1.16494 2.89889L1.18203 2.84019C1.19248 2.80365 1.19775 2.76731 1.19775 2.73485C1.19775 1.88691 1.89587 1.1957 2.76939 1.19281L2.77844 1.19144L15.2058 1.19181L15.2593 1.19588C16.1102 1.19588 16.8025 1.88729 16.8025 2.73709C16.8025 2.76372 16.8065 2.79104 16.8157 2.82808L16.8224 2.84583L16.8224 4.2226Z" fill="#1F1F1F"/>
<path id="Vector_2" d="M12.6184 8.30701C12.46 8.30701 12.3106 8.3688 12.1979 8.48131L7.70626 12.9671L5.56079 10.8247C5.44934 10.7122 5.30046 10.6502 5.1418 10.6502C4.98315 10.6502 4.83376 10.712 4.72129 10.8242C4.60915 10.9349 4.54691 11.0831 4.54639 11.2416C4.54605 11.4003 4.6081 11.5499 4.72108 11.663L7.28524 14.2239C7.39722 14.3355 7.54679 14.397 7.70626 14.397C7.86558 14.397 8.01513 14.3356 8.1271 14.2238L13.0372 9.32019C13.1494 9.20955 13.2116 9.06155 13.2121 8.90295C13.2125 8.7435 13.1502 8.59362 13.0376 8.48163C12.926 8.36896 12.7771 8.30701 12.6185 8.30701H12.6184Z" fill="#1F1F1F"/>
</g>
</svg>
