
<svg xmlns="http://www.w3.org/2000/svg" width="24" height="24" viewBox="0 0 24 24" fill="none">
<mask id="mask0_2926_1179" style="mask-type:luminance" maskUnits="userSpaceOnUse" x="0" y="0" width="24" height="24">
<path d="M12.3125 22.625C13.667 22.6267 15.0085 22.3608 16.2599 21.8424C17.5113 21.3241 18.6479 20.5635 19.6045 19.6045C20.5635 18.6479 21.3241 17.5113 21.8424 16.2599C22.3608 15.0085 22.6267 13.667 22.625 12.3125C22.6267 10.958 22.3608 9.6165 21.8424 8.3651C21.324 7.1137 20.5635 5.97708 19.6045 5.02054C18.6479 4.06149 17.5113 3.30093 16.2599 2.78256C15.0085 2.2642 13.667 1.99825 12.3125 2.00001C10.958 1.99828 9.6165 2.26424 8.3651 2.7826C7.1137 3.30097 5.97708 4.06151 5.02054 5.02054C4.06151 5.97708 3.30097 7.1137 2.7826 8.3651C2.26424 9.6165 1.99828 10.958 2.00001 12.3125C1.99825 13.667 2.2642 15.0085 2.78256 16.2599C3.30093 17.5113 4.06149 18.6479 5.02054 19.6045C5.97708 20.5635 7.1137 21.324 8.3651 21.8424C9.6165 22.3608 10.958 22.6267 12.3125 22.625Z" fill="white" stroke="white" stroke-width="2.0625" stroke-linejoin="round"/>
<path d="M8.1875 12.3281L11.2812 15.4219L17.4687 9.23438" stroke="black" stroke-width="2.0625" stroke-linecap="round" stroke-linejoin="round"/>
</mask>
<g mask="url(#mask0_2926_1179)">
<path d="M0 0H24.75V24.75H0V0Z" fill="#00A92A"/>
</g>
</svg>