<svg width="23" height="16" viewBox="0 0 23 16" fill="none" xmlns="http://www.w3.org/2000/svg">
<path d="M20.26 14.3683H2.74C2.27852 14.3683 1.83595 14.185 1.50964 13.8586C1.18332 13.5323 1 13.0898 1 12.6283C0.999521 12.2959 1.09319 11.9701 1.27016 11.6887C1.44713 11.4073 1.70018 11.1818 2 11.0383L11.5 6.73828L20.98 11.0383C21.2798 11.1818 21.5329 11.4073 21.7098 11.6887C21.8868 11.9701 21.9805 12.2959 21.98 12.6283C21.98 13.0863 21.7995 13.5259 21.4775 13.8516C21.1555 14.1774 20.718 14.363 20.26 14.3683Z" stroke="#1F1F1F" stroke-width="2" stroke-miterlimit="10"/>
<path d="M11.4991 6.73829V6.47829C11.5163 6.07941 11.6276 5.69026 11.824 5.34265C12.0204 4.99504 12.2963 4.69885 12.6291 4.47829C12.8998 4.29011 13.1172 4.03506 13.2601 3.73796C13.403 3.44087 13.4666 3.11183 13.4447 2.78288C13.4227 2.45392 13.316 2.13625 13.1349 1.86076C12.9538 1.58528 12.7045 1.36136 12.4112 1.2108C12.1179 1.06024 11.7906 0.988165 11.4612 1.00158C11.1318 1.015 10.8114 1.11346 10.5313 1.28737C10.2513 1.46129 10.021 1.70474 9.86286 1.99404C9.70476 2.28334 9.62423 2.60864 9.62912 2.93829" stroke="#1F1F1F" stroke-width="2" stroke-miterlimit="10"/>
</svg>
